<svg width="100%" height="100%" viewBox="0 0 771 733" version="1.1" xmlns="http://www.w3.org/2000/svg" xmlns:xlink="http://www.w3.org/1999/xlink" xml:space="preserve" xmlns:serif="http://www.serif.com/" style="fill-rule:evenodd;clip-rule:evenodd;stroke-linejoin:round;stroke-miterlimit:2;">
    <path d="M733.063,173.909C733.438,173.357 742.767,182.748 751.251,180.816C761.821,178.408 769.553,158.776 763.822,150.379C760.028,144.822 750.594,144.561 750.791,143.518C751,142.403 761.153,146.142 766.676,141.676C773.386,136.252 771.984,119.755 763.775,111.102C762.133,109.37 759.405,106.495 755.487,106.267C747.791,105.819 741.75,115.95 739.095,120.403C730.652,134.56 729.96,149.413 728.919,149.274C727.956,149.146 730.512,136.716 725.879,134.171C724.864,133.614 723.659,133.622 722.46,133.899C722.763,133.114 722.982,132.307 723.092,131.477C723.787,126.242 719.628,120.677 714.714,116.012C719.832,119.044 725.617,121.146 730.736,119.643C742.169,116.283 749.777,95.083 743.766,82.069C739.568,72.979 728.862,68.177 729.215,67.656C729.59,67.105 738.919,76.496 747.404,74.563C757.974,72.156 765.706,52.524 759.974,44.127C756.181,38.569 746.747,38.308 746.943,37.266C747.153,36.151 757.306,39.889 762.829,35.424C769.538,29.999 768.136,13.502 759.928,4.849C758.285,3.118 755.557,0.242 751.639,0.014C743.944,-0.433 737.902,9.698 735.247,14.151C726.804,28.308 726.113,43.161 725.071,43.022C724.108,42.893 726.665,30.464 722.032,27.919C719.131,26.325 714.669,29.298 713.283,30.221C698.044,40.374 702.267,62.45 688.188,85.937C683.655,93.5 679.139,98.015 675.329,101.431C673.588,80.402 679.999,64.259 670.286,52.032C669.251,50.728 665.916,46.53 662.666,47.156C657.476,48.157 656.096,60.772 655.14,60.599C654.106,60.412 658.004,46.063 654.312,29.998C653.151,24.945 650.508,13.45 643.047,11.515C639.248,10.529 635.769,12.429 633.675,13.573C623.207,19.291 616.812,34.562 621.534,41.784C625.421,47.728 636.231,47.285 636.088,48.41C635.955,49.463 626.896,46.817 621.581,50.943C613.549,57.176 614.886,78.234 624.207,83.768C631.69,88.21 643.45,82.134 643.638,82.774C643.814,83.378 632.151,84.664 625.367,92.028C622.551,95.084 620.619,99.149 619.527,103.541C610.288,104.235 602.38,110.855 602.084,110.345C601.749,109.768 614.257,105.435 616.196,96.952C618.61,86.383 604.274,70.902 594.222,72.425C587.569,73.433 583.242,81.821 582.388,81.192C581.474,80.519 589.246,72.992 587.618,66.079C585.64,57.68 570.167,51.789 558.81,55.433C556.538,56.162 552.763,57.373 550.859,60.805C547.118,67.545 553.627,77.382 556.488,81.706C565.583,95.453 578.666,102.518 578.089,103.396C577.556,104.208 567.465,96.514 563.162,99.585C560.468,101.507 561.212,106.817 561.443,108.466C563.982,126.601 585.706,132.37 600.764,155.241C613.025,173.866 607.793,183.974 618.182,189.022C622.641,191.189 628.32,191.608 634.124,190.565L634.124,190.565C629.632,220.643 628.362,272.082 628.362,272.082C627.095,323.535 620.48,365.909 617.584,365.827C615.977,365.779 616.569,352.818 611.698,331.976C608.28,317.363 606.666,318.037 597.791,291.964C583.706,250.605 576.665,229.932 576.65,229.819C576.575,228.92 576.452,227.105 575.937,225.269C586.362,222.352 596.485,214.879 600.002,204.392C602.815,196.002 602.076,183.54 595.233,179.05C590.818,176.153 584,177.487 577.665,179.892C582.617,176.596 587.02,172.294 587.884,167.03C589.816,155.271 574.013,139.222 559.679,138.994C549.668,138.835 540.698,146.399 540.382,145.855C540.047,145.278 552.555,140.945 554.494,132.461C556.908,121.893 542.572,106.412 532.52,107.935C525.867,108.943 521.54,117.33 520.686,116.701C519.772,116.028 527.544,108.501 525.916,101.588C523.938,93.19 508.465,87.299 497.108,90.943C494.836,91.672 491.061,92.883 489.157,96.314C485.416,103.054 491.925,112.891 494.786,117.215C503.881,130.962 516.964,138.027 516.387,138.905C515.854,139.717 505.763,132.023 501.46,135.094C498.766,137.017 499.51,142.327 499.741,143.976C502.28,162.111 524.004,167.879 539.062,190.751C551.323,209.375 546.091,219.483 556.48,224.531C558.277,225.405 560.277,225.987 562.399,226.312L562.399,226.322C563.313,240.542 588.93,278.758 603.189,333.093C610.291,360.163 614.177,374.931 611.38,395.495C608.617,415.882 600.944,429.642 601.084,438.727C601.094,439.577 601.168,440.361 601.326,441.119L643.433,435.592C643.716,434.776 643.937,433.939 644.113,433.079C647.32,417.611 635.621,394.102 641.566,356.188C645.981,328.053 658.077,304.912 663.717,294.131C670.647,280.872 678.834,268.401 687.674,249.034C693.351,252.16 699.786,253.82 706.173,253.017C714.953,251.913 725.862,245.843 726.94,237.729C727.635,232.495 723.476,226.93 718.562,222.265C723.68,225.297 729.465,227.399 734.583,225.895C746.017,222.536 753.625,201.336 747.614,188.321C743.416,179.232 732.71,174.429 733.063,173.909L733.063,173.909ZM561.753,187.772C561.723,187.711 562.162,187.52 562.928,187.209C562.207,187.614 561.784,187.833 561.753,187.772ZM701.73,105.907C701.052,105.432 700.672,105.147 700.713,105.092C700.755,105.038 701.118,105.351 701.73,105.907ZM658.063,127.612C658.816,127.271 659.258,127.085 659.28,127.149C659.303,127.213 658.854,127.368 658.063,127.612ZM623.455,152.263C623.425,152.202 623.864,152.011 624.63,151.7C623.909,152.105 623.486,152.324 623.455,152.263ZM635.569,261.037C634.558,260.809 646.855,211.071 648.872,184.664C654.708,180.838 659.501,175.451 661.704,168.883C661.742,168.769 661.777,168.651 661.814,168.535C662.981,168.373 664.142,168.154 665.292,167.883C661.177,178.288 658.881,185.844 658.881,185.844C648.195,221.048 636.491,261.248 635.569,261.037ZM681.464,244.799C678.089,249.974 674.135,256.336 668.689,266.067C654.721,290.998 647.744,303.455 645.909,312.337C645.427,314.709 642.883,327.536 637.054,343.796C634.075,352.093 632.585,356.241 631.452,356.072C628.243,355.585 628.189,322.858 637.071,288.972C638.594,283.204 639.807,279.481 642.115,272.441C645.859,260.956 666.723,197.12 683.136,158.395L683.138,158.389C686.169,155.484 688.436,152.161 689.549,148.662C689.905,147.545 690.105,146.512 690.184,145.529C694.11,146.777 698.227,147.279 702.325,146.764C704.617,146.476 707.053,145.847 709.423,144.934C702.868,156.548 702.974,173.942 692.036,192.19C680.572,211.315 669.195,210.985 669.151,222.535C669.122,230.205 674.116,238.69 681.469,244.791L681.464,244.799L681.464,244.799ZM704.561,211.345C704.602,211.291 704.965,211.604 705.578,212.159C704.9,211.685 704.519,211.399 704.561,211.345Z" style="fill:white;fill-opacity:0.58;fill-rule:nonzero;"/>
    <path d="M264.226,161.609C270.655,160.538 277.651,168.39 280.573,171.669C288.374,180.425 290.003,190.61 290.633,194.933C300.574,263.159 305.544,297.271 284.974,313.138C265.426,328.217 229.693,324.173 222.728,310.623C220.015,305.345 222.283,299.823 225.872,289.246C232.504,269.697 236.413,249.324 242.219,229.514C255.477,184.283 254.364,163.253 264.226,161.609Z" style="fill:rgb(47,46,65);fill-rule:nonzero;"/>
    <path d="M88.804,416.253L57.519,475.302C49.532,490.376 11.742,722.574 28.548,725.5L101.343,727.915L131.548,729.5L162.593,729.947L239.548,732.5L196.321,430.085L88.804,416.253Z" style="fill:rgb(47,46,65);fill-rule:nonzero;"/>
    <path d="M165.826,243.032L228.072,245.547L233.102,266.296L248.092,278.525C253.604,283.021 256.307,290.11 255.19,297.134L248.192,341.117C248.192,341.117 261.396,372.555 228.072,392.675L194.749,446.747L79.059,434.801C79.059,434.801 68.37,433.544 75.915,425.999C83.46,418.454 92.891,381.357 92.891,381.357C92.891,381.357 91.634,365.01 96.035,360.609C100.436,356.207 97.372,344.89 97.372,344.89L115.274,278.715C118.762,265.82 130.462,256.865 143.82,256.865L163.673,256.865L165.826,243.032L165.826,243.032Z" style="fill:rgb(224,165,213);fill-rule:nonzero;"/>
    <path d="M644.667,666.158L101.049,520.871C89.435,517.767 81.342,508.423 79.928,496.484C78.514,484.546 84.2,473.569 94.768,467.838L315.691,348.022C321.274,344.994 327.802,343.894 334.069,344.929L699.226,405.126C707.021,406.411 713.777,410.707 718.248,417.221C722.719,423.734 724.298,431.582 722.695,439.318L680.233,644.223C678.612,652.044 673.975,658.66 667.177,662.853C662.568,665.696 657.41,667.15 652.161,667.15C649.668,667.15 647.152,666.822 644.667,666.158L644.667,666.158Z" style="fill:white;fill-rule:nonzero;"/>
    <path d="M644.667,666.158L101.049,520.871C89.435,517.767 81.342,508.423 79.928,496.484C78.514,484.546 84.2,473.569 94.768,467.838L315.691,348.022C321.274,344.994 327.802,343.894 334.069,344.929L699.226,405.126C707.021,406.411 713.777,410.707 718.248,417.221C722.719,423.734 724.298,431.582 722.695,439.318L680.233,644.223C678.612,652.044 673.975,658.66 667.177,662.853C662.568,665.696 657.41,667.15 652.161,667.15C649.668,667.15 647.152,666.822 644.667,666.158L644.667,666.158ZM698.737,408.087L333.581,347.889C327.968,346.962 322.122,347.947 317.121,350.659L96.198,470.475C86.734,475.607 81.64,485.438 82.907,496.131C84.173,506.823 91.422,515.192 101.824,517.973L645.442,663.26C652.353,665.105 659.513,664.056 665.602,660.3C671.691,656.545 675.844,650.618 677.296,643.613L719.757,438.709C721.193,431.781 719.778,424.752 715.774,418.918C711.77,413.084 705.719,409.237 698.737,408.087L698.982,406.606L698.737,408.087L698.737,408.087Z" style="fill:rgb(204,204,204);fill-rule:nonzero;"/>
    <path d="M619.761,464.494L571.281,586.826C566.581,598.686 553.386,604.755 541.323,600.604L184.988,478C165.312,471.23 163.114,444.282 181.433,434.413L296.108,372.632C301.097,369.944 306.88,369.119 312.422,370.304L602.562,432.357C617,435.445 625.201,450.768 619.761,464.494L619.761,464.494Z" style="fill:rgb(242,242,242);fill-rule:nonzero;"/>
    <ellipse cx="526.414" cy="474.727" rx="20.12" ry="10.06" style="fill:rgb(255,104,132);"/>
    <ellipse cx="507.552" cy="505.535" rx="20.12" ry="10.06" style="fill:rgb(63,61,86);"/>
    <ellipse cx="399.407" cy="464.038" rx="54.701" ry="27.351" style="fill:rgb(224,165,213);"/>
    <path d="M304.466,462.781C305.242,462.781 305.969,462.298 306.244,461.524C306.591,460.542 306.077,459.464 305.096,459.116L265.18,444.969C264.2,444.622 263.12,445.135 262.772,446.117C262.424,447.099 262.938,448.177 263.92,448.525L303.836,462.672C304.044,462.746 304.256,462.781 304.466,462.781L304.466,462.781Z" style="fill:rgb(63,61,86);fill-rule:nonzero;"/>
    <path d="M313.268,455.865C314.044,455.865 314.772,455.382 315.046,454.608C315.394,453.626 314.88,452.548 313.898,452.2L273.982,438.053C273.003,437.706 271.923,438.219 271.574,439.201C271.227,440.183 271.74,441.261 272.722,441.609L312.638,455.756C312.846,455.83 313.059,455.865 313.268,455.865L313.268,455.865Z" style="fill:rgb(63,61,86);fill-rule:nonzero;"/>
    <path d="M322.071,448.949C322.847,448.949 323.574,448.465 323.849,447.692C324.196,446.71 323.682,445.632 322.701,445.283L282.785,431.137C281.805,430.79 280.725,431.302 280.377,432.285C280.029,433.267 280.543,434.345 281.525,434.693L321.441,448.84C321.649,448.914 321.861,448.948 322.071,448.948L322.071,448.949Z" style="fill:rgb(63,61,86);fill-rule:nonzero;"/>
    <path d="M330.873,442.032C331.649,442.032 332.377,441.549 332.651,440.775C332.999,439.794 332.485,438.715 331.503,438.367L291.587,424.22C290.608,423.873 289.527,424.386 289.179,425.369C288.832,426.35 289.345,427.429 290.327,427.777L330.243,441.924C330.451,441.997 330.664,442.032 330.873,442.032L330.873,442.032Z" style="fill:rgb(63,61,86);fill-rule:nonzero;"/>
    <path d="M339.676,435.116C340.452,435.116 341.179,434.633 341.454,433.859C341.801,432.877 341.287,431.799 340.306,431.451L300.39,417.304C299.41,416.957 298.33,417.47 297.982,418.452C297.634,419.434 298.148,420.512 299.13,420.86L339.046,435.007C339.254,435.081 339.466,435.116 339.676,435.116L339.676,435.116Z" style="fill:rgb(63,61,86);fill-rule:nonzero;"/>
    <path d="M348.478,428.2C349.254,428.2 349.982,427.717 350.256,426.943C350.604,425.961 350.09,424.883 349.108,424.535L309.192,410.388C308.212,410.042 307.133,410.554 306.784,411.536C306.437,412.518 306.95,413.596 307.932,413.944L347.848,428.091C348.056,428.165 348.269,428.2 348.478,428.2L348.478,428.2Z" style="fill:rgb(63,61,86);fill-rule:nonzero;"/>
    <path d="M357.281,421.284C358.057,421.284 358.784,420.8 359.059,420.027C359.406,419.045 358.892,417.967 357.91,417.618L317.995,403.472C317.015,403.125 315.935,403.637 315.587,404.62C315.239,405.602 315.753,406.68 316.735,407.028L356.651,421.175C356.859,421.249 357.071,421.284 357.281,421.284L357.281,421.284Z" style="fill:rgb(63,61,86);fill-rule:nonzero;"/>
    <circle cx="222.728" cy="211.909" r="51.557" style="fill:rgb(160,97,106);"/>
    <path d="M233.417,135.202C218.901,132.836 211.106,131.565 203.237,133.316C187.474,136.823 178.33,150.915 171.799,160.981C156.182,185.051 163.243,195.167 147.907,228.886C136.905,253.074 131.359,252.074 130.302,264.724C128.083,291.278 150.671,317.84 174.943,328.228C176.564,328.922 201.788,339.477 208.896,330.743C214.106,324.34 204.902,313.32 193.806,283.587C174.294,231.306 183.514,213.833 186.261,209.394C187.996,206.59 192.946,199.62 195.692,200.592C198.176,201.471 196.026,207.85 198.207,213.167C204.051,227.41 239.57,230.573 267.369,219.454C275.567,216.175 280.598,214.164 284.346,208.766C297.062,190.45 281.881,152.068 257.938,140.861C252.491,138.311 246.133,137.275 233.417,135.202L233.417,135.202Z" style="fill:rgb(47,46,65);fill-rule:nonzero;"/>
    <path id="b-165" d="M196.554,442.382C209.093,448.742 215.976,460.367 211.927,468.347C207.878,476.326 194.432,477.637 181.889,471.273C176.844,468.8 172.464,465.154 169.117,460.641L116.328,433.021L129.817,408.525L180.426,438.354C186.046,438.389 191.577,439.77 196.554,442.382Z" style="fill:rgb(160,97,106);fill-rule:nonzero;"/>
    <path id="c-166" d="M443.448,406.845C456.657,411.662 464.879,422.383 461.811,430.789C458.744,439.195 445.551,442.101 432.338,437.28C427.033,435.427 422.25,432.33 418.388,428.249L362.678,407.129L373.146,381.198L426.954,404.771C432.539,404.135 438.195,404.846 443.448,406.845L443.448,406.845Z" style="fill:rgb(160,97,106);fill-rule:nonzero;"/>
    <path d="M136.589,269.754C136.589,269.754 125.901,247.748 101.379,264.724C76.858,281.701 18.384,352.12 18.384,352.12C18.384,352.12 -11.796,378.528 5.181,387.959C22.157,397.39 144.134,452.092 144.134,452.092L174.943,430.714L65.541,374.755L128.383,327.599L136.589,269.754L136.589,269.754Z" style="fill:rgb(224,165,213);fill-rule:nonzero;"/>
    <path d="M243.477,282.958C243.477,282.958 250.957,272.269 264.193,282.958C277.429,293.647 315.523,355.193 315.523,355.193L409.467,393.618L395.634,421.912L283.088,381.672L234.046,315.024L243.477,282.958Z" style="fill:rgb(224,165,213);fill-rule:nonzero;"/>
    <path d="M237.504,263.781C223.245,271.062 229.806,282.241 229.33,284.53C224.696,306.82 241.636,329.907 248.192,328.542C252.039,327.742 254.061,318.161 253.222,310.937C252.136,301.573 261.142,286.749 260.139,280.129C257.678,263.886 272.525,263.582 269.57,257.494C267.838,253.926 246.001,259.442 237.504,263.781L237.504,263.781Z" style="fill:rgb(47,46,65);fill-rule:nonzero;"/>
    <path d="M402.787,492.835C402.846,492.835 402.905,492.832 402.965,492.824C403.788,492.728 404.376,491.981 404.278,491.158L400.897,462.604C400.85,462.209 400.648,461.849 400.335,461.602C400.021,461.356 399.625,461.246 399.228,461.292L345.519,467.751C344.696,467.85 344.11,468.597 344.209,469.419C344.308,470.242 345.055,470.833 345.877,470.729L398.094,464.45L401.299,491.512C401.389,492.274 402.037,492.835 402.787,492.835L402.787,492.835Z" style="fill:white;fill-rule:nonzero;"/>
    <g>
        <circle cx="126.217" cy="492.413" r="28" style="fill:rgb(224,165,213);"/>
        <path d="M113.495,488.046L122.495,503.873C123.03,504.815 124.568,504.883 125.085,503.873C128.6,497.009 133.564,490.933 139.683,486.224C140.33,485.726 140.659,484.939 140.222,484.171C139.86,483.536 138.81,483.14 138.169,483.633C131.633,488.663 126.258,495.009 122.495,502.359L125.085,502.359L116.086,486.532C115.131,484.854 112.539,486.364 113.495,488.046L113.495,488.046Z" style="fill:white;fill-rule:nonzero;"/>
    </g>
</svg>
