<?xml version="1.0" encoding="UTF-8" standalone="no"?>
<!DOCTYPE svg PUBLIC "-//W3C//DTD SVG 1.1//EN" "http://www.w3.org/Graphics/SVG/1.1/DTD/svg11.dtd">
<svg width="100%" height="100%" viewBox="0 0 793 764" version="1.1" xmlns="http://www.w3.org/2000/svg" xmlns:xlink="http://www.w3.org/1999/xlink" xml:space="preserve" xmlns:serif="http://www.serif.com/" style="fill-rule:evenodd;clip-rule:evenodd;stroke-linejoin:round;stroke-miterlimit:2;">
    <circle cx="180.18" cy="49.432" r="49.432" style="fill:rgb(255,101,132);"/>
    <g transform="matrix(1,0,0,1,-203.802,-68.5265)">
        <path d="M439.607,433.148C420.295,433.148 401.604,426.246 386.926,413.695C382.029,409.503 376.811,402.214 371.417,392.034C364.45,378.761 363.871,363.018 369.846,349.269C367.001,352.163 363.854,354.745 360.459,356.969L358.743,358.11L358.644,356.053C358.579,354.714 358.546,353.38 358.546,352.088C358.546,344.472 364.306,336.744 361.649,329.705C350.453,300.036 314.941,270.551 366.409,224.633C371.17,220.386 364.81,211.893 364.81,205.467C364.81,142.485 433.242,48.007 479.053,91.246C505.793,116.484 561.505,134.414 587.517,169.52L587.861,170.56L586.846,170.971C581.649,173.155 576.175,174.611 570.58,175.297C576.545,176.514 582.633,177.024 588.718,176.817L589.661,176.784L589.891,177.701C592.155,186.782 593.298,196.107 593.297,205.467L593.293,206.478C593.25,220.849 599.333,234.578 610.005,244.202C626.86,259.569 636.487,281.344 636.511,304.152C636.511,317.504 627.436,335.031 619.824,347.383C615.917,353.753 609.298,357.993 601.878,358.878C594.855,359.763 587.789,357.481 582.611,352.654C586.215,359.899 590.91,366.547 596.534,372.365L597.573,373.435L596.283,374.187C583.89,381.413 569.797,385.219 555.451,385.214L554.611,385.211C532.829,385.211 512.154,393.65 497.887,408.364C482.591,424.121 461.568,433.062 439.607,433.148Z" style="fill:rgb(230,230,230);fill-rule:nonzero;"/>
    </g>
    <g transform="matrix(1,0,0,1,-203.802,-68.5265)">
        <path d="M411.022,560.126C410.3,560.125 409.682,559.589 409.581,558.874C409.519,558.439 403.452,514.687 408.901,456.539C413.932,402.837 430.091,325.489 478.495,261.964C478.771,261.602 479.2,261.389 479.655,261.389C480.454,261.389 481.112,262.047 481.112,262.847C481.112,263.166 481.008,263.477 480.814,263.731C432.828,326.707 416.8,403.489 411.804,456.811C406.387,514.62 412.406,558.031 412.467,558.463C412.477,558.531 412.482,558.599 412.482,558.667C412.482,559.468 411.823,560.126 411.023,560.126L411.022,560.126Z" style="fill:rgb(204,204,204);fill-rule:nonzero;"/>
    </g>
    <g transform="matrix(1,0,0,1,-203.802,-68.5265)">
        <path d="M455.219,349.962C455.219,349.962 455.219,349.962 455.218,349.962C454.419,349.962 453.76,349.303 453.76,348.504C453.76,348.038 453.984,347.599 454.361,347.325C468.153,337.989 483.053,330.404 498.717,324.745C523.189,315.785 560.403,307.663 598.713,319.856C599.317,320.048 599.729,320.612 599.729,321.245C599.729,322.045 599.071,322.703 598.271,322.703C598.121,322.703 597.972,322.68 597.829,322.634C560.304,310.692 523.765,318.68 499.72,327.483C484.308,333.045 469.647,340.502 456.075,349.683C455.827,349.864 455.527,349.962 455.219,349.962Z" style="fill:rgb(204,204,204);fill-rule:nonzero;"/>
    </g>
    <g transform="matrix(1,0,0,1,-203.802,-68.5265)">
        <path d="M387.499,177.786C387.496,177.751 387.495,177.715 387.495,177.68C387.495,176.88 388.153,176.222 388.953,176.222C389.382,176.222 389.79,176.412 390.067,176.74C400.372,189.824 409.01,204.139 415.783,219.355C426.481,243.118 437.262,279.65 427.86,318.739C427.703,319.393 427.114,319.857 426.442,319.857C425.643,319.857 424.985,319.199 424.985,318.4C424.985,318.284 424.998,318.17 425.025,318.058C434.234,279.769 423.636,243.901 413.124,220.552C406.466,205.58 397.973,191.495 387.838,178.619C387.64,178.385 387.521,178.093 387.499,177.786Z" style="fill:rgb(204,204,204);fill-rule:nonzero;"/>
    </g>
    <g transform="matrix(1,0,0,1,-203.802,-68.5265)">
        <path d="M743.154,648.704C642.887,648.704 565.925,643.427 512.507,622.266C382.398,570.726 338.289,549.322 337.858,549.112L338.736,547.315C339.166,547.525 383.231,568.904 513.243,620.406C590.359,650.956 717.242,648.231 892.858,644.459C925.813,643.752 959.891,643.02 996.183,642.437L996.214,644.437C959.929,645.02 925.854,645.751 892.901,646.459C838.271,647.632 788.343,648.704 743.154,648.704Z" style="fill:rgb(202,202,202);fill-rule:nonzero;"/>
    </g>
    <g transform="matrix(1,0,0,1,-203.802,-68.5265)">
        <path d="M320.004,779.921L318.59,778.507C367.17,729.927 385.891,711.354 389.857,707.424L246.711,604.024L247.882,602.403L392.942,707.186L392.102,708.016C391.941,708.175 375.359,724.565 320.004,779.921Z" style="fill:rgb(202,202,202);fill-rule:nonzero;"/>
    </g>
    <g transform="matrix(1,0,0,1,-203.802,-68.5265)">
        <path d="M392.082,832.205L390.717,830.742C395.199,826.56 500.606,728.406 521.146,728.406L521.211,728.406L993.307,733.214L993.287,735.214L521.19,730.406L521.132,730.406C501.395,730.406 393.174,831.186 392.082,832.205Z" style="fill:rgb(202,202,202);fill-rule:nonzero;"/>
    </g>
    <rect x="658.243" y="610.687" width="121.252" height="2" style="fill:rgb(202,202,202);"/>
    <rect x="431.243" y="610.687" width="121.252" height="2" style="fill:rgb(202,202,202);"/>
    <g transform="matrix(1,0,0,1,-203.802,-68.5265)">
        <path d="M629.297,518.056L559.297,518.056L559.297,500.372L585.297,500.372C588.588,500.372 591.297,497.663 591.297,494.372L591.297,475.214C591.297,471.922 588.588,469.214 585.297,469.214L559.297,469.214L559.297,463.214C559.297,458.825 555.686,455.214 551.297,455.214C546.908,455.214 543.297,458.825 543.297,463.214L543.297,469.214L447.206,469.214C445.964,469.214 444.752,469.599 443.739,470.317L430.212,479.896C428.625,481.02 427.679,482.848 427.679,484.793C427.679,486.737 428.625,488.565 430.212,489.689L443.739,499.268C444.752,499.986 445.964,500.372 447.206,500.372L543.297,500.372L543.297,518.056L473.297,518.056C470.005,518.056 467.297,520.764 467.297,524.056L467.297,543.214C467.297,546.505 470.005,549.214 473.297,549.214L543.297,549.214L543.297,615.214C543.297,619.602 546.908,623.214 551.297,623.214C555.686,623.214 559.297,619.602 559.297,615.214L559.297,549.214L629.297,549.214C632.588,549.214 635.297,546.505 635.297,543.214L635.297,524.056C635.297,520.764 632.588,518.056 629.297,518.056Z" style="fill:rgb(63,61,86);fill-rule:nonzero;"/>
    </g>
    <g transform="matrix(1,0,0,1,-203.802,-68.5265)">
        <path d="M511.297,485.714L461.297,485.714C459.377,485.714 457.797,484.134 457.797,482.214C457.797,480.294 459.377,478.714 461.297,478.714L511.297,478.714C513.217,478.714 514.797,480.294 514.797,482.214C514.797,484.134 513.217,485.714 511.297,485.714Z" style="fill:rgb(243,164,255);fill-rule:nonzero;"/>
    </g>
    <g transform="matrix(1,0,0,1,-203.802,-68.5265)">
        <path d="M573.297,536.714L523.297,536.714C521.377,536.714 519.797,535.134 519.797,533.214C519.797,531.294 521.377,529.714 523.297,529.714L573.297,529.714C575.217,529.714 576.797,531.294 576.797,533.214C576.797,535.134 575.217,536.714 573.297,536.714Z" style="fill:white;fill-rule:nonzero;"/>
    </g>
    <g transform="matrix(1,0,0,1,-203.802,-68.5265)">
        <path d="M333.297,618.056L333.297,600.372L359.297,600.372C362.588,600.372 365.297,597.663 365.297,594.372L365.297,575.214C365.297,571.922 362.588,569.214 359.297,569.214L333.297,569.214L333.297,563.488C333.352,559.229 330.073,555.603 325.829,555.231C325.652,555.219 325.475,555.213 325.298,555.213C320.909,555.213 317.297,558.825 317.297,563.214L317.297,569.214L209.688,619.563C208.799,619.977 208.12,620.742 207.814,621.674C206.967,624.256 205.186,629.766 203.975,634.112C203.863,634.516 203.807,634.933 203.807,635.353C203.807,637.914 205.914,640.021 208.475,640.021C208.525,640.021 208.575,640.02 208.625,640.019C215.559,639.806 220.122,639.483 223.289,639.394C223.9,639.377 224.501,639.24 225.059,638.99L317.297,600.372L317.297,714.94C317.242,719.199 320.521,722.825 324.764,723.196C324.941,723.208 325.119,723.214 325.296,723.214C329.685,723.214 333.297,719.603 333.297,715.214L333.297,618.056L333.297,618.056Z" style="fill:rgb(63,61,86);fill-rule:nonzero;"/>
    </g>
    <g transform="matrix(1,0,0,1,-203.802,-68.5265)">
        <path d="M291.541,600.681L245.916,621.134C245.466,621.336 244.978,621.44 244.484,621.44C242.564,621.44 240.984,619.86 240.984,617.94C240.984,616.564 241.796,615.309 243.052,614.746L288.678,594.293C289.128,594.091 289.616,593.987 290.11,593.987C292.03,593.987 293.61,595.567 293.61,597.487C293.61,598.864 292.797,600.118 291.541,600.681Z" style="fill:white;fill-rule:nonzero;"/>
    </g>
    <g transform="matrix(1,0,0,1,-203.802,-68.5265)">
        <path d="M902.988,437.75L882.138,439.866C881.192,450.578 883.059,461.354 887.555,471.124L881.299,529.395L881.391,529.393C880.795,530.424 880.481,531.593 880.481,532.783C880.481,536.495 883.535,539.549 887.246,539.549C890.958,539.549 894.012,536.495 894.012,532.783C894.012,531.258 893.496,529.776 892.548,528.581L906.453,476.587L902.988,437.75Z" style="fill:rgb(160,97,106);fill-rule:nonzero;"/>
    </g>
    <path d="M635.054,625.01L626.195,623.483L625.327,596.741L640.942,590.836L635.054,625.01Z" style="fill:rgb(160,97,106);fill-rule:nonzero;"/>
    <g transform="matrix(1,0,0,1,-203.802,-68.5265)">
        <path d="M837.576,702.833L810.331,698.139L810.39,697.794C811.393,691.977 817.004,688.015 822.821,689.016L822.822,689.017L828.449,686.098L837.084,691.474L839.462,691.883L837.576,702.833Z" style="fill:rgb(47,46,65);fill-rule:nonzero;"/>
    </g>
    <path d="M723.94,606.495L716.268,611.18L694.542,583.815L705.867,576.9L723.94,606.495Z" style="fill:rgb(160,97,106);fill-rule:nonzero;"/>
    <g transform="matrix(1,0,0,1,-203.802,-68.5265)">
        <path d="M932.901,682.861L909.306,697.27L909.124,696.971C906.047,691.933 907.661,685.256 912.698,682.179L912.699,682.179L915.012,676.277L925.05,674.636L927.11,673.378L932.901,682.861Z" style="fill:rgb(47,46,65);fill-rule:nonzero;"/>
    </g>
    <g transform="matrix(1,0,0,1,-203.802,-68.5265)">
        <path d="M841.886,530.899L836.57,551.1C836.57,551.1 835.119,559.472 835.87,560.224C837.152,562.038 837.8,564.226 837.712,566.446C837.374,568.495 833.934,567.66 835.654,570.709C837.374,573.758 832.059,620.159 832.059,620.159L827.297,677.214L844.297,679.214C846.738,677.784 847.096,676.159 845.655,674.365C845.655,674.365 849.142,670.343 847.219,668.778C845.297,667.214 848.77,666.56 848.959,662.566L859.932,623.385L863.564,614.627L862.614,610.058L865.373,604.812L866.699,591.053L870.297,627.214L903.895,665.795L920.437,657.524L921.408,655.41C922.23,653.619 921.583,651.473 919.909,650.434L914.297,645.214C914.778,643.063 907.143,637.672 907.143,637.672L894.36,613.61L902.297,546.214C902.297,546.214 914.297,530.214 898.399,515.736C891.887,509.805 841.886,530.899 841.886,530.899Z" style="fill:rgb(47,46,65);fill-rule:nonzero;"/>
    </g>
    <g transform="matrix(1,0,0,1,-203.802,-68.5265)">
        <path d="M893.046,504.359C895.864,500.17 902.631,506.186 900.376,498.666C898.12,491.147 892.412,489.749 897.522,482.553L904.887,446.683C905.329,438.124 902.419,429.722 896.78,423.268L886.178,411.134L884.585,406.831L866.539,406.079L865.035,411.342C859.644,418.055 850.821,426.675 851.085,439.353C851.593,463.751 847.788,496.214 838.416,538.447C838.416,538.447 859.375,522.082 865.965,529.173C872.554,536.263 892.406,534.335 897.368,529.395C900.547,525.979 902.867,521.855 904.135,517.364C905.403,512.873 890.228,508.547 893.046,504.359Z" style="fill:rgb(243,164,255);fill-rule:nonzero;"/>
    </g>
    <g transform="matrix(1,0,0,1,-203.802,-68.5265)">
        <path d="M904.441,532.814L863.297,521.214L836.297,534.214C848.386,511.719 855.742,474.266 853.418,442.45C852.861,435.69 854.189,428.906 857.254,422.855C860.966,415.711 866.771,410.663 875.297,411.214L886.297,410.214L893.297,414.214C903.425,424.825 907.41,440.656 905.834,455.242C904.094,471.339 901.929,490.895 901.492,492.641C901.236,493.668 902.046,495.469 902.903,497.377C904.35,500.595 906.151,504.601 903.649,507.103C902.119,508.458 901.227,510.396 901.195,512.44C901.323,514.257 902.206,515.941 903.629,517.079C906.826,519.841 904.601,531.957 904.505,532.471L904.441,532.814Z" style="fill:rgb(47,46,65);fill-rule:nonzero;"/>
    </g>
    <g transform="matrix(1,0,0,1,-203.802,-68.5265)">
        <path d="M883.451,453.142L862.779,449.691C859.045,459.776 858.008,470.663 859.772,481.271L838.386,535.836L838.476,535.859C837.19,537.13 836.466,538.864 836.466,540.672C836.466,544.383 839.52,547.438 843.231,547.438C846.943,547.438 849.997,544.383 849.997,540.672C849.997,539.759 849.812,538.855 849.453,538.015L876.563,491.52L883.451,453.142Z" style="fill:rgb(160,97,106);fill-rule:nonzero;"/>
    </g>
    <g transform="matrix(1,0,0,1,-203.802,-68.5265)">
        <path d="M859.297,464.214L883.297,459.214L887.217,441.795C887.21,434.375 881.103,428.272 873.682,428.272C866.262,428.272 860.154,434.375 860.148,441.795C857.729,451.489 858.151,454.297 859.297,464.214Z" style="fill:rgb(243,164,255);fill-rule:nonzero;"/>
    </g>
    <circle cx="671.008" cy="316.499" r="18.798" style="fill:rgb(160,97,106);"/>
    <g transform="matrix(1,0,0,1,-203.802,-68.5265)">
        <path d="M896.616,370.738C895.153,368.121 889.334,371.47 887.53,369.074C886.101,366.987 884.281,365.196 882.172,363.8C878.619,361.734 874.229,361.685 870.631,363.671C869.334,364.597 867.945,365.386 866.486,366.027C864.967,366.512 862.985,366.146 862.327,364.693C862.791,365.962 863.255,367.231 863.718,368.5C861.182,369.674 858.132,368.701 856.744,366.275C856.662,367.589 856.581,368.903 856.499,370.217C856.276,369.477 855.538,369.006 854.773,369.115C853.824,369.402 853.092,370.168 852.849,371.129C851.661,374.621 854.502,378.697 858.143,379.282C860.396,379.644 862.661,378.921 864.921,378.614C867.182,378.308 869.799,378.564 871.227,380.343C872.629,382.09 872.358,384.58 872.439,386.819C872.52,389.058 873.499,391.744 875.719,392.042C877.243,392.247 878.699,391.185 880.233,391.276C882.424,391.406 883.828,393.923 883.592,396.105C883.357,398.287 881.985,400.154 880.661,401.905C882.849,402.078 885.037,402.251 887.225,402.424L886.377,402.659C891.729,402.397 895.86,397.202 896.5,391.882C897.139,386.561 899.23,375.416 896.616,370.738Z" style="fill:rgb(47,46,65);fill-rule:nonzero;"/>
    </g>
</svg>
