<?xml version="1.0" encoding="UTF-8" standalone="no"?>
<!DOCTYPE svg PUBLIC "-//W3C//DTD SVG 1.1//EN" "http://www.w3.org/Graphics/SVG/1.1/DTD/svg11.dtd">
<svg width="100%" height="100%" viewBox="0 0 553 368" version="1.1" xmlns="http://www.w3.org/2000/svg" xmlns:xlink="http://www.w3.org/1999/xlink" xml:space="preserve" xmlns:serif="http://www.serif.com/" style="fill-rule:evenodd;clip-rule:evenodd;stroke-linejoin:round;stroke-miterlimit:2;">
    <path d="M213.78,33.239L146.695,33.239C144.394,33.239 142.521,31.367 142.521,29.065C142.521,26.764 144.394,24.891 146.695,24.891L213.78,24.891C216.081,24.891 217.954,26.764 217.954,29.065C217.954,31.367 216.081,33.239 213.78,33.239Z" style="fill:white;fill-rule:nonzero;"/>
    <path d="M266.133,47.366L146.695,47.366C144.394,47.366 142.521,45.494 142.521,43.192C142.521,40.891 144.394,39.019 146.695,39.019L266.133,39.019C268.435,39.019 270.307,40.891 270.307,43.192C270.307,45.494 268.435,47.366 266.133,47.366Z" style="fill:white;fill-rule:nonzero;"/>
    <path d="M266.133,61.366L146.695,61.366C144.394,61.366 142.521,59.494 142.521,57.192C142.521,54.891 144.394,53.019 146.695,53.019L266.133,53.019C268.435,53.019 270.307,54.891 270.307,57.192C270.307,59.494 268.435,61.366 266.133,61.366Z" style="fill:white;fill-rule:nonzero;"/>
    <path d="M278.785,134.019L278.785,132.019C255.7,132.019 235.54,113.161 230.18,86.893L238.879,89.131C234.672,85.145 230.421,78.472 227.785,73.019C226.228,78.873 223.319,86.23 219.943,90.941L228.173,87.042C233.646,114.371 254.672,134.019 278.785,134.019Z" style="fill:rgb(63,61,86);fill-rule:nonzero;"/>
    <path d="M270.053,57.48C270.053,59.686 268.258,61.48 266.053,61.48L214.053,61.48C211.847,61.48 210.053,59.686 210.053,57.48C210.053,55.274 211.847,53.48 214.053,53.48L266.053,53.48C268.258,53.48 270.053,55.274 270.053,57.48Z" style="fill:rgb(224,165,213);fill-rule:nonzero;"/>
    <g>
        <g>
            <path d="M35.904,280.297C35.112,277.541 33.757,275.19 32.143,273.513L26.279,246.783L13.498,249.914L20.822,276.692C20.341,278.957 20.437,281.662 21.229,284.418C23.037,290.715 27.788,294.898 31.841,293.76C35.893,292.622 37.712,286.595 35.904,280.297L35.904,280.297Z" style="fill:rgb(255,182,182);fill-rule:nonzero;"/>
            <path d="M34.136,104.956C34.136,104.956 20.331,104.48 12.331,113.48C3.165,124.676 -3.1,168.547 1.603,171.501L14.346,261.987L32.517,259.49L27.853,150.921L34.136,104.956L34.136,104.956Z" style="fill:rgb(224,165,213);fill-rule:nonzero;"/>
        </g>
        <path d="M127.331,257.48L124.023,367.917L76.523,367.917L74.603,325.347L66.163,367.917L15.253,367.917L21.603,294.737L28.163,279.347L32.603,268.917L127.331,257.48Z" style="fill:rgb(47,46,65);fill-rule:nonzero;"/>
        <path d="M89.603,86.917L56.603,84.917L45.603,98.917C36.103,100.951 27.522,103.577 21.603,107.917C23.019,149.843 19.909,204.359 32.603,214.917L21.331,294.48C21.331,294.48 25.877,290.585 33.47,291.96C36.094,292.435 39.261,298.345 42.484,298.703C67.254,301.455 107.422,298.625 127.331,257.48L119.603,197.917L121.603,110.917C115.351,105.975 107.578,102.763 98.603,100.917L89.603,86.917L89.603,86.917L89.603,86.917Z" style="fill:rgb(224,165,213);fill-rule:nonzero;"/>
        <g>
            <path d="M153.134,62.578C153.492,66.045 153.037,69.306 151.99,71.92L157.487,104.732L141.797,106.891L137.91,73.374C136.351,71.029 135.24,67.93 134.882,64.463C134.064,56.543 137.486,49.701 142.527,49.18C147.567,48.66 152.316,54.658 153.134,62.578L153.134,62.578L153.134,62.578L153.134,62.578Z" style="fill:rgb(255,182,182);fill-rule:nonzero;"/>
            <path d="M100.971,113.424C99.328,115.848 99.785,118.572 99.393,121.846C97.728,135.742 124.358,176.806 142.784,181.534C145.201,182.154 146.579,184.762 149.019,185.287L149.019,185.287C156.249,186.841 162.98,181.102 162.59,173.718L157.585,79.01L136.558,86.182L137.903,135.353C137.769,125.166 128.416,114.794 121.331,110.48C121.331,110.48 106.98,104.558 100.971,113.424L100.971,113.424Z" style="fill:rgb(224,165,213);fill-rule:nonzero;"/>
        </g>
        <g>
            <circle cx="76.528" cy="53.262" r="29.068" style="fill:rgb(255,182,182);"/>
            <path d="M103.603,31.917C103.353,31.977 107.43,28.004 107.603,27.917C111.603,25.917 107.493,45.467 104.603,44.917C97.493,43.567 94.423,40.887 91.663,47.577C90.893,49.437 90.413,51.537 88.913,52.867C86.853,54.677 83.433,54.527 81.753,56.687C80.403,58.427 80.793,60.987 81.793,62.947C82.793,64.917 84.313,66.587 85.223,68.597C86.243,70.857 81.893,78.047 80.233,82.087L80.233,82.097L80.223,82.121C79.782,83.181 78.734,80.128 77.628,79.823C76.303,79.459 74.352,82.585 72.243,82.017C72.233,82.017 72.223,82.007 72.213,82.007C70.203,81.447 67.963,80.847 65.743,80.247L65.733,80.247C59.483,78.547 57.903,80.987 57.603,80.917L53.723,76.857C52.392,75.888 52.542,72.758 51.603,71.917C50.835,71.23 48.921,72.818 48.357,72.158C45.591,68.918 44.954,65.676 43.323,59.277C41.833,53.427 38.743,35.917 45.093,35.127C51.083,34.377 46.703,26.037 52.733,26.347C52.373,24.827 53.043,23.197 54.133,22.077C55.213,20.947 56.653,20.247 58.103,19.647C65.253,16.727 64.063,14.217 71.603,15.917C72.353,14.867 81.971,12.13 83.331,12.48C83.431,12.5 81.233,16.767 86.603,15.917C86.403,17.147 89.331,14.48 89.603,18.917C95.331,15.48 98.413,23.707 98.603,24.917C98.853,26.427 96.573,25.657 98.093,25.887C98.993,26.027 100.533,27.857 100.383,28.767C101.033,27.887 101.683,27.017 102.343,26.137C102.463,26.147 102.573,26.167 102.693,26.187C105.733,26.767 102.248,36.705 102.373,33.607C102.603,27.917 106.633,31.247 103.603,31.917L103.603,31.917Z" style="fill:rgb(47,46,65);fill-rule:nonzero;"/>
        </g>
    </g>
    <path d="M474.37,25.958C473.296,34.785 472.122,43.6 470.85,52.401C470.333,55.976 469.786,59.596 468.348,62.909C467.367,65.17 465.992,67.235 464.624,69.287C463.009,71.711 461.366,74.166 459.172,76.082C456.977,77.998 454.127,79.343 451.222,79.118C458.929,73.931 464.108,65.157 464.926,55.903C465.311,51.553 464.783,47.181 464.682,42.815C464.581,38.45 464.946,33.932 466.96,30.058C468.974,26.183 472.953,23.082 477.318,23.192L474.37,25.958L474.37,25.958Z" style="fill:rgb(47,46,65);fill-rule:nonzero;"/>
    <g>
        <path d="M396.268,214.231C389.997,219.316 382.291,220.204 379.054,216.214C375.818,212.224 378.277,204.866 384.548,199.78C387.293,197.554 390.313,196.133 393.113,195.572L419.953,174.356L429.641,187.163L402.153,206.719C401.027,209.343 399.013,212.004 396.268,214.231L396.268,214.231L396.268,214.231L396.268,214.231Z" style="fill:rgb(160,97,106);fill-rule:nonzero;"/>
        <path d="M401.338,185.428L441.331,147.48L445.331,144.48C445.331,144.48 468.288,122.113 474.233,121.601C476.751,121.385 479.269,122.012 481.39,123.39C484.817,125.613 486.591,129.27 486.591,132.957C486.591,136.037 485.351,139.133 482.811,141.412L446.197,174.282L430.621,188.263L411.25,205.657L409.281,201.646L402.622,188.054L401.338,185.428L401.338,185.428L401.338,185.428L401.338,185.428Z" style="fill:rgb(224,165,213);fill-rule:nonzero;"/>
    </g>
    <path d="M486.853,159.746L446.81,172.011C453.514,173.899 456.321,214.75 450.082,216.019C450.082,216.019 516.446,220.74 512.825,216.019C508.411,210.265 514.331,172.028 517.154,172.011L486.853,159.746Z" style="fill:rgb(160,97,106);fill-rule:nonzero;"/>
    <path d="M540.136,367.92L536.636,325.68C536.636,310.57 535.656,296.92 534.086,284.75C527.796,235.9 512.026,210.861 512.026,210.861L453.026,210.861C452.946,210.951 452.866,211.021 452.786,211.111L452.776,211.121C438.856,225.751 431.616,262.54 428.396,284.751C426.866,295.321 426.246,302.591 426.246,302.591L420.476,353.871L424.646,367.921L458.976,367.921L458.436,364.91L480.526,284.75L480.796,283.77L481.036,284.75L501.516,367.921L540.136,367.921L540.136,367.92L540.136,367.92Z" style="fill:rgb(47,46,65);fill-rule:nonzero;"/>
    <path d="M454.235,135.379L466.703,110.212L477.208,91.928L485.703,83.271L508.952,83.271L511.116,91.928L524.102,99.142L528.695,135.215L512.331,213.48C492.852,197.608 452.703,193.212 452.703,193.212L446.197,174.281L441.898,151.476L441.378,148.749L454.235,135.379L454.235,135.379Z" style="fill:rgb(224,165,213);fill-rule:nonzero;"/>
    <g>
        <path d="M452.74,180.905C444.669,180.676 438.245,176.327 438.391,171.192C438.536,166.056 445.197,162.078 453.267,162.307C456.8,162.408 460.017,163.297 462.506,164.697L496.691,166.096L495.692,182.124L462.099,179.044C459.535,180.3 456.272,181.006 452.74,180.905L452.74,180.905L452.74,180.905L452.74,180.905Z" style="fill:rgb(160,97,106);fill-rule:nonzero;"/>
        <path d="M496.457,126.198L528.703,158.212L472.535,163.964L459.482,182.324L537.77,184.92C544.834,187.436 552.358,182.554 552.939,175.078L552.939,175.078C553.135,172.554 537.052,108.506 527.315,102.56C515.903,95.591 496.457,126.198 496.457,126.198L502.826,115.595L496.457,126.198Z" style="fill:rgb(224,165,213);fill-rule:nonzero;"/>
    </g>
    <g transform="matrix(0.0161225,-0.99987,0.99987,0.0161225,433.159,543.066)">
        <circle cx="492.526" cy="51.433" r="26.333" style="fill:rgb(160,97,106);"/>
    </g>
    <path d="M550.331,133.48C549.671,135.98 544.531,137.27 543.331,140.48C539.511,142.66 541.581,124.85 540.041,123.68C538.851,122.79 538.531,124.94 538.261,123.09C537.241,116.15 530.571,117.7 525.631,116.58C525.071,115.49 524.641,114.43 524.361,113.4C523.861,111.54 521.581,110.89 520.231,112.26C519.621,111.72 519.181,109.81 518.751,107.9C518.441,106.51 518.131,105.12 517.771,104.24L514.331,96.48L515.441,102.26C513.191,101.45 510.921,102.29 509.611,99.51C507.931,95.94 507.261,91.76 508.481,88.01C509.591,84.61 511.461,77.8 513.571,72.16C511.181,73.89 508.311,75.15 504.981,75.78C506.161,73.54 507.361,71.26 507.861,68.77C508.351,66.28 508.051,63.51 506.471,61.53C505.171,59.9 503.251,60.31 501.631,59C500.371,57.98 499.281,55.37 498.521,53.94C501.761,64.71 504.211,76.15 500.091,86.43C497.241,93.55 491.241,99.34 484.041,101.97C487.871,99.23 491.611,96.31 494.481,92.59C497.551,88.6 499.551,83.56 498.941,78.56C497.981,70.71 483.421,45.88 481.631,41C482.611,45.77 482.231,49.49 479.651,51.54C478.981,44.62 471.441,45.25 467.331,42.48C467.331,42.48 464.151,24.51 471.611,24.4C475.211,24.35 478.981,15.89 482.251,14.38C487.471,11.97 490.671,13.61 496.461,13.79C502.241,13.96 507.791,16.45 511.321,21.02C513.171,23.41 513.851,21.51 516.631,23C519.271,24.41 521.051,23.1 524.041,23.19C530.031,23.35 535.841,26.55 539.201,31.5C542.561,36.46 544.631,36 543.301,43.67C543.281,43.76 543.281,43.94 543.301,44.21C544.031,56.29 542.161,68.4 537.371,79.52C535.891,82.94 543.13,86.47 543.12,90.74C543.11,95.7 535.121,100.22 535.861,102.34C537.981,112.55 549.891,110.28 547.081,127.37C546.851,128.76 550.771,131.81 550.331,133.48L550.331,133.48Z" style="fill:rgb(47,46,65);fill-rule:nonzero;"/>
    <path d="M477.378,102.211C477.598,102.141 477.818,102.061 478.038,101.971C477.758,102.171 477.488,102.361 477.208,102.561L477.378,102.211L477.378,102.211Z" style="fill:rgb(47,46,65);fill-rule:nonzero;"/>
    <path d="M514.47,17.96C511.606,18.386 508.696,13.633 510.322,7.043C513.867,12.462 515.678,18.563 515.963,25.265L514.053,25.857L514.47,17.96L514.47,17.96Z" style="fill:rgb(224,165,213);fill-rule:nonzero;"/>
    <path d="M529.106,11.808C527.151,18.735 517.224,23.371 515.47,20.96L515.27,25.091L514.043,23.512C517.603,18.218 522.456,14.156 529.106,11.808L529.106,11.808L529.106,11.808Z" style="fill:rgb(224,165,213);fill-rule:nonzero;"/>
    <g>
        <path d="M311.121,198.594C311.121,196.292 312.993,194.42 315.295,194.42L382.38,194.42C384.681,194.42 386.554,196.292 386.554,198.594C386.554,200.895 384.681,202.768 382.38,202.768L315.295,202.768C312.993,202.768 311.121,200.895 311.121,198.594Z" style="fill:white;fill-rule:nonzero;"/>
        <path d="M311.121,226.594C311.121,224.292 312.993,222.42 315.295,222.42L382.38,222.42C384.681,222.42 386.554,224.292 386.554,226.594C386.554,228.895 384.681,230.768 382.38,230.768L315.295,230.768C312.993,230.768 311.121,228.895 311.121,226.594Z" style="fill:white;fill-rule:nonzero;"/>
        <path d="M262.941,216.895C260.64,216.895 258.768,215.022 258.768,212.721C258.768,210.42 260.64,208.547 262.941,208.547L382.38,208.547C384.681,208.547 386.554,210.42 386.554,212.721C386.554,215.022 384.681,216.895 382.38,216.895L262.941,216.895Z" style="fill:white;fill-rule:nonzero;"/>
    </g>
    <g>
        <path d="M254.062,176.947L245.832,173.048C249.208,177.759 252.116,185.117 253.673,190.971C256.31,185.518 260.56,178.845 264.767,174.859L256.069,177.097C261.429,150.829 281.588,131.971 304.673,131.971L304.673,129.971C280.56,129.971 259.534,149.619 254.062,176.947Z" style="fill:rgb(63,61,86);fill-rule:nonzero;"/>
        <path d="M291.941,216.971L239.941,216.971C237.736,216.971 235.941,215.177 235.941,212.971C235.941,210.765 237.736,208.971 239.941,208.971L291.941,208.971C294.147,208.971 295.941,210.765 295.941,212.971C295.941,215.177 294.147,216.971 291.941,216.971Z" style="fill:rgb(224,165,213);fill-rule:nonzero;"/>
    </g>
    <g transform="matrix(0.160182,-0.987087,0.987087,0.160182,114.008,399.315)">
        <circle cx="291.673" cy="132.657" r="15.657" style="fill:rgb(63,61,86);"/>
    </g>
    <circle cx="206.673" cy="9.657" r="9.657" style="fill:white;"/>
    <circle cx="319.673" cy="176.657" r="9.657" style="fill:white;"/>
</svg>
