<?xml version="1.0" encoding="UTF-8" standalone="no"?>
<!DOCTYPE svg PUBLIC "-//W3C//DTD SVG 1.1//EN" "http://www.w3.org/Graphics/SVG/1.1/DTD/svg11.dtd">
<svg width="100%" height="100%" viewBox="0 0 723 559" version="1.1" xmlns="http://www.w3.org/2000/svg" xmlns:xlink="http://www.w3.org/1999/xlink" xml:space="preserve" xmlns:serif="http://www.serif.com/" style="fill-rule:evenodd;clip-rule:evenodd;stroke-linejoin:round;stroke-miterlimit:2;">
    <g transform="matrix(1,0,0,1,-238.48,-171.037)">
        <path d="M892.077,705.041L306.995,705.041C269.419,705.041 238.499,674.121 238.499,636.545C238.499,631.596 239.035,626.662 240.099,621.829L266.232,503.041L932.84,503.041L958.974,621.829C960.037,626.662 960.573,631.596 960.573,636.545C960.573,674.121 929.653,705.041 892.077,705.041ZM267.84,505.041L242.052,622.258C241.02,626.95 240.499,631.74 240.499,636.545C240.499,673.024 270.516,703.041 306.995,703.041L892.077,703.041C928.556,703.041 958.573,673.024 958.573,636.545C958.573,631.74 958.053,626.95 957.02,622.258L931.232,505.041L267.84,505.041Z" style="fill:rgb(242,242,242);fill-rule:nonzero;"/>
    </g>
    <g transform="matrix(1,0,0,1,-238.48,-171.037)">
        <path d="M817.785,249.415L848.476,244.841L843.628,223.492L825.228,232.759L787.267,218.452C786.119,215.487 783.251,213.522 780.071,213.522C775.838,213.522 772.355,217.006 772.355,221.239C772.355,225.472 775.838,228.956 780.071,228.956C780.798,228.956 781.521,228.853 782.219,228.651L817.785,249.415Z" style="fill:rgb(255,182,182);fill-rule:nonzero;"/>
    </g>
    <g transform="matrix(1,0,0,1,-238.48,-171.037)">
        <path d="M880.164,233.455C877.791,242.45 823.116,252.596 823.144,250.65C823.221,245.12 826.737,233.515 824.729,230.505C823.581,228.783 839.042,224.384 839.042,224.384C839.042,224.384 847.575,221.099 858.638,217.091C864.946,214.672 872.073,215.657 877.489,219.695C882.904,223.734 882.537,224.461 880.164,233.455Z" style="fill:rgb(144,161,219);fill-rule:nonzero;"/>
    </g>
    <g transform="matrix(1,0,0,1,-238.48,-171.037)">
        <path d="M351.247,608.037L332.247,608.037C323.469,608.037 316.247,615.259 316.247,624.037C316.247,632.814 323.469,640.037 332.247,640.037L351.247,640.037C360.024,640.037 367.247,632.814 367.247,624.037C367.247,615.259 360.024,608.037 351.247,608.037Z" style="fill:white;fill-opacity:0.65;fill-rule:nonzero;"/>
    </g>
    <g transform="matrix(1,0,0,1,-238.48,-171.037)">
        <path d="M412.247,608.037L393.247,608.037C384.469,608.037 377.247,615.259 377.247,624.037C377.247,632.814 384.469,640.037 393.247,640.037L412.247,640.037C421.024,640.037 428.247,632.814 428.247,624.037C428.247,615.259 421.024,608.037 412.247,608.037Z" style="fill:rgb(230,230,230);fill-rule:nonzero;"/>
    </g>
    <g transform="matrix(1,0,0,1,-238.48,-171.037)">
        <path d="M473.247,608.037L454.247,608.037C445.469,608.037 438.247,615.259 438.247,624.037C438.247,632.814 445.469,640.037 454.247,640.037L473.247,640.037C482.024,640.037 489.247,632.814 489.247,624.037C489.247,615.259 482.024,608.037 473.247,608.037Z" style="fill:white;fill-opacity:0.65;fill-rule:nonzero;"/>
    </g>
    <g transform="matrix(1,0,0,1,-238.48,-171.037)">
        <path d="M534.247,608.037L515.247,608.037C506.469,608.037 499.247,615.259 499.247,624.037C499.247,632.814 506.469,640.037 515.247,640.037L534.247,640.037C543.024,640.037 550.247,632.814 550.247,624.037C550.247,615.259 543.024,608.037 534.247,608.037Z" style="fill:white;fill-opacity:0.65;fill-rule:nonzero;"/>
    </g>
    <g transform="matrix(1,0,0,1,-238.48,-171.037)">
        <path d="M595.247,608.037L576.247,608.037C567.469,608.037 560.247,615.259 560.247,624.037C560.247,632.814 567.469,640.037 576.247,640.037L595.247,640.037C604.024,640.037 611.247,632.814 611.247,624.037C611.247,615.259 604.024,608.037 595.247,608.037Z" style="fill:white;fill-opacity:0.65;fill-rule:nonzero;"/>
    </g>
    <g transform="matrix(1,0,0,1,-238.48,-171.037)">
        <path d="M656.247,608.037L637.247,608.037C628.469,608.037 621.247,615.259 621.247,624.037C621.247,632.814 628.469,640.037 637.247,640.037L656.247,640.037C665.024,640.037 672.247,632.814 672.247,624.037C672.247,615.259 665.024,608.037 656.247,608.037Z" style="fill:white;fill-opacity:0.65;fill-rule:nonzero;"/>
    </g>
    <g transform="matrix(1,0,0,1,-238.48,-171.037)">
        <path d="M717.247,608.037L698.247,608.037C689.469,608.037 682.247,615.259 682.247,624.037C682.247,632.814 689.469,640.037 698.247,640.037L717.247,640.037C726.024,640.037 733.247,632.814 733.247,624.037C733.247,615.259 726.024,608.037 717.247,608.037Z" style="fill:white;fill-opacity:0.65;fill-rule:nonzero;"/>
    </g>
    <g transform="matrix(1,0,0,1,-238.48,-171.037)">
        <path d="M778.247,608.037L759.247,608.037C750.469,608.037 743.247,615.259 743.247,624.037C743.247,632.814 750.469,640.037 759.247,640.037L778.247,640.037C787.024,640.037 794.247,632.814 794.247,624.037C794.247,615.259 787.024,608.037 778.247,608.037Z" style="fill:white;fill-opacity:0.65;fill-rule:nonzero;"/>
    </g>
    <g transform="matrix(1,0,0,1,-238.48,-171.037)">
        <path d="M839.247,608.037L820.247,608.037C811.469,608.037 804.247,615.259 804.247,624.037C804.247,632.814 811.469,640.037 820.247,640.037L839.247,640.037C848.024,640.037 855.247,632.814 855.247,624.037C855.247,615.259 848.024,608.037 839.247,608.037Z" style="fill:white;fill-opacity:0.65;fill-rule:nonzero;"/>
    </g>
    <g transform="matrix(1,0,0,1,-238.48,-171.037)">
        <path d="M351.247,541.037L332.247,541.037C323.469,541.037 316.247,548.259 316.247,557.037C316.247,565.814 323.469,573.037 332.247,573.037L351.247,573.037C360.024,573.037 367.247,565.814 367.247,557.037C367.247,548.259 360.024,541.037 351.247,541.037Z" style="fill:white;fill-opacity:0.65;fill-rule:nonzero;"/>
    </g>
    <g transform="matrix(1,0,0,1,-238.48,-171.037)">
        <path d="M412.247,541.037L393.247,541.037C384.469,541.037 377.247,548.259 377.247,557.037C377.247,565.814 384.469,573.037 393.247,573.037L412.247,573.037C421.024,573.037 428.247,565.814 428.247,557.037C428.247,548.259 421.024,541.037 412.247,541.037Z" style="fill:rgb(230,230,230);fill-rule:nonzero;"/>
    </g>
    <g transform="matrix(1,0,0,1,-238.48,-171.037)">
        <path d="M473.247,541.037L454.247,541.037C445.469,541.037 438.247,548.259 438.247,557.037C438.247,565.814 445.469,573.037 454.247,573.037L473.247,573.037C482.024,573.037 489.247,565.814 489.247,557.037C489.247,548.259 482.024,541.037 473.247,541.037Z" style="fill:rgb(224,231,255);fill-rule:nonzero;"/>
    </g>
    <g transform="matrix(1,0,0,1,-238.48,-171.037)">
        <path d="M534.247,541.037L515.247,541.037C506.469,541.037 499.247,548.259 499.247,557.037C499.247,565.814 506.469,573.037 515.247,573.037L534.247,573.037C543.024,573.037 550.247,565.814 550.247,557.037C550.247,548.259 543.024,541.037 534.247,541.037Z" style="fill:white;fill-opacity:0.65;fill-rule:nonzero;"/>
    </g>
    <g transform="matrix(1,0,0,1,-238.48,-171.037)">
        <path d="M595.247,541.037L576.247,541.037C567.469,541.037 560.247,548.259 560.247,557.037C560.247,565.814 567.469,573.037 576.247,573.037L595.247,573.037C604.024,573.037 611.247,565.814 611.247,557.037C611.247,548.259 604.024,541.037 595.247,541.037Z" style="fill:white;fill-opacity:0.65;fill-rule:nonzero;"/>
    </g>
    <g transform="matrix(1,0,0,1,-238.48,-171.037)">
        <path d="M656.247,541.037L637.247,541.037C628.469,541.037 621.247,548.259 621.247,557.037C621.247,565.814 628.469,573.037 637.247,573.037L656.247,573.037C665.024,573.037 672.247,565.814 672.247,557.037C672.247,548.259 665.024,541.037 656.247,541.037Z" style="fill:white;fill-opacity:0.65;fill-rule:nonzero;"/>
    </g>
    <g transform="matrix(1,0,0,1,-238.48,-171.037)">
        <path d="M717.247,541.037L698.247,541.037C689.469,541.037 682.247,548.259 682.247,557.037C682.247,565.814 689.469,573.037 698.247,573.037L717.247,573.037C726.024,573.037 733.247,565.814 733.247,557.037C733.247,548.259 726.024,541.037 717.247,541.037Z" style="fill:white;fill-opacity:0.65;fill-rule:nonzero;"/>
    </g>
    <g transform="matrix(1,0,0,1,-238.48,-171.037)">
        <path d="M778.247,541.037L759.247,541.037C750.469,541.037 743.247,548.259 743.247,557.037C743.247,565.814 750.469,573.037 759.247,573.037L778.247,573.037C787.024,573.037 794.247,565.814 794.247,557.037C794.247,548.259 787.024,541.037 778.247,541.037Z" style="fill:white;fill-opacity:0.65;fill-rule:nonzero;"/>
    </g>
    <g transform="matrix(1,0,0,1,-238.48,-171.037)">
        <path d="M839.247,541.037L820.247,541.037C811.469,541.037 804.247,548.259 804.247,557.037C804.247,565.814 811.469,573.037 820.247,573.037L839.247,573.037C848.024,573.037 855.247,565.814 855.247,557.037C855.247,548.259 848.024,541.037 839.247,541.037Z" style="fill:white;fill-opacity:0.65;fill-rule:nonzero;"/>
    </g>
    <g transform="matrix(1,0,0,1,-238.48,-171.037)">
        <path d="M379.747,575.537L360.747,575.537C351.969,575.537 344.747,582.759 344.747,591.537C344.747,600.314 351.969,607.537 360.747,607.537L379.747,607.537C388.524,607.537 395.747,600.314 395.747,591.537C395.747,582.759 388.524,575.537 379.747,575.537Z" style="fill:white;fill-opacity:0.65;fill-rule:nonzero;"/>
    </g>
    <g transform="matrix(1,0,0,1,-238.48,-171.037)">
        <path d="M440.747,575.537L421.747,575.537C412.969,575.537 405.747,582.759 405.747,591.537C405.747,600.314 412.969,607.537 421.747,607.537L440.747,607.537C449.524,607.537 456.747,600.314 456.747,591.537C456.747,582.759 449.524,575.537 440.747,575.537Z" style="fill:white;fill-opacity:0.65;fill-rule:nonzero;"/>
    </g>
    <g transform="matrix(1,0,0,1,-238.48,-171.037)">
        <path d="M501.747,575.537L482.747,575.537C473.969,575.537 466.747,582.759 466.747,591.537C466.747,600.314 473.969,607.537 482.747,607.537L501.747,607.537C510.524,607.537 517.747,600.314 517.747,591.537C517.747,582.759 510.524,575.537 501.747,575.537Z" style="fill:white;fill-opacity:0.65;fill-rule:nonzero;"/>
    </g>
    <g transform="matrix(1,0,0,1,-238.48,-171.037)">
        <path d="M562.747,575.537L543.747,575.537C534.969,575.537 527.747,582.759 527.747,591.537C527.747,600.314 534.969,607.537 543.747,607.537L562.747,607.537C571.524,607.537 578.747,600.314 578.747,591.537C578.747,582.759 571.524,575.537 562.747,575.537Z" style="fill:white;fill-opacity:0.65;fill-rule:nonzero;"/>
    </g>
    <g transform="matrix(1,0,0,1,-238.48,-171.037)">
        <path d="M623.747,575.537L604.747,575.537C595.969,575.537 588.747,582.759 588.747,591.537C588.747,600.314 595.969,607.537 604.747,607.537L623.747,607.537C632.524,607.537 639.747,600.314 639.747,591.537C639.747,582.759 632.524,575.537 623.747,575.537Z" style="fill:white;fill-opacity:0.65;fill-rule:nonzero;"/>
    </g>
    <g transform="matrix(1,0,0,1,-238.48,-171.037)">
        <path d="M684.747,575.537L665.747,575.537C656.969,575.537 649.747,582.759 649.747,591.537C649.747,600.314 656.969,607.537 665.747,607.537L684.747,607.537C693.524,607.537 700.747,600.314 700.747,591.537C700.747,582.759 693.524,575.537 684.747,575.537Z" style="fill:white;fill-opacity:0.65;fill-rule:nonzero;"/>
    </g>
    <g transform="matrix(1,0,0,1,-238.48,-171.037)">
        <path d="M745.747,575.537L726.747,575.537C717.969,575.537 710.747,582.759 710.747,591.537C710.747,600.314 717.969,607.537 726.747,607.537L745.747,607.537C754.524,607.537 761.747,600.314 761.747,591.537C761.747,582.759 754.524,575.537 745.747,575.537Z" style="fill:white;fill-opacity:0.65;fill-rule:nonzero;"/>
    </g>
    <g transform="matrix(1,0,0,1,-238.48,-171.037)">
        <path d="M806.747,575.537L787.747,575.537C778.969,575.537 771.747,582.759 771.747,591.537C771.747,600.314 778.969,607.537 787.747,607.537L806.747,607.537C815.524,607.537 822.747,600.314 822.747,591.537C822.747,582.759 815.524,575.537 806.747,575.537Z" style="fill:white;fill-opacity:0.65;fill-rule:nonzero;"/>
    </g>
    <g transform="matrix(1,0,0,1,-238.48,-171.037)">
        <path d="M867.747,575.537L848.747,575.537C839.969,575.537 832.747,582.759 832.747,591.537C832.747,600.314 839.969,607.537 848.747,607.537L867.747,607.537C876.524,607.537 883.747,600.314 883.747,591.537C883.747,582.759 876.524,575.537 867.747,575.537Z" style="fill:white;fill-opacity:0.65;fill-rule:nonzero;"/>
    </g>
    <g transform="matrix(1,0,0,1,-238.48,-171.037)">
        <path d="M797.379,504.037L402.615,504.037C389.664,504.022 379.011,493.37 378.997,480.419L379.023,480.193C392.988,419.765 392.983,344.011 379.006,241.791L378.997,241.655C379.011,228.704 389.664,218.052 402.615,218.037L797.379,218.037C810.33,218.052 820.982,228.704 820.997,241.655L820.975,241.864C804.084,320.412 804.084,401.661 820.975,480.21L820.997,480.419C820.982,493.37 810.33,504.022 797.379,504.037Z" style="fill:white;fill-rule:nonzero;"/>
    </g>
    <g transform="matrix(1,0,0,1,-238.48,-171.037)">
        <path d="M797.379,504.037L402.615,504.037C389.664,504.022 379.011,493.37 378.997,480.419L379.023,480.193C392.988,419.765 392.983,344.011 379.006,241.791L378.997,241.655C379.011,228.704 389.664,218.052 402.615,218.037L797.379,218.037C810.33,218.052 820.982,228.704 820.997,241.655L820.975,241.864C804.084,320.412 804.084,401.661 820.975,480.21L820.997,480.419C820.982,493.37 810.33,504.022 797.379,504.037ZM380.997,480.531C381.072,492.342 390.803,502.023 402.615,502.037L797.379,502.037C809.193,502.023 818.926,492.338 818.996,480.523C802.076,401.767 802.076,320.307 818.996,241.55C818.926,229.736 809.193,220.05 797.379,220.037L402.615,220.037C390.786,220.05 381.047,229.759 380.997,241.588C394.989,343.956 394.99,419.893 380.997,480.531Z" style="fill:rgb(230,230,230);fill-rule:nonzero;"/>
    </g>
    <g transform="matrix(1,0,0,1,-238.48,-171.037)">
        <path d="M755.997,288.537L436.997,288.537C433.431,288.537 430.497,285.603 430.497,282.037C430.497,278.471 433.431,275.537 436.997,275.537L755.997,275.537C759.563,275.537 762.497,278.471 762.497,282.037C762.497,285.603 759.563,288.537 755.997,288.537Z" style="fill:rgb(230,230,230);fill-rule:nonzero;"/>
    </g>
    <g transform="matrix(1,0,0,1,-238.48,-171.037)">
        <path d="M755.997,320.037L436.997,320.037C433.431,320.037 430.497,317.103 430.497,313.537C430.497,309.971 433.431,307.037 436.997,307.037L755.997,307.037C759.563,307.037 762.497,309.971 762.497,313.537C762.497,317.103 759.563,320.037 755.997,320.037Z" style="fill:rgb(230,230,230);fill-rule:nonzero;"/>
    </g>
    <g transform="matrix(1,0,0,1,-238.48,-171.037)">
        <path d="M755.997,351.537L436.997,351.537C433.431,351.537 430.497,348.603 430.497,345.037C430.497,341.471 433.431,338.537 436.997,338.537L755.997,338.537C759.563,338.537 762.497,341.471 762.497,345.037C762.497,348.603 759.563,351.537 755.997,351.537Z" style="fill:rgb(230,230,230);fill-rule:nonzero;"/>
    </g>
    <g transform="matrix(1,0,0,1,-238.48,-171.037)">
        <path d="M755.997,383.037L436.997,383.037C433.431,383.037 430.497,380.103 430.497,376.537C430.497,372.971 433.431,370.037 436.997,370.037L755.997,370.037C759.563,370.037 762.497,372.971 762.497,376.537C762.497,380.103 759.563,383.037 755.997,383.037Z" style="fill:rgb(230,230,230);fill-rule:nonzero;"/>
    </g>
    <g transform="matrix(1,0,0,1,-238.48,-171.037)">
        <path d="M755.997,414.537L436.997,414.537C433.431,414.537 430.497,411.603 430.497,408.037C430.497,404.471 433.431,401.537 436.997,401.537L755.997,401.537C759.563,401.537 762.497,404.471 762.497,408.037C762.497,411.603 759.563,414.537 755.997,414.537Z" style="fill:rgb(230,230,230);fill-rule:nonzero;"/>
    </g>
    <g transform="matrix(1,0,0,1,-238.48,-171.037)">
        <path d="M579.997,446.037L436.997,446.037C433.431,446.037 430.497,443.103 430.497,439.537C430.497,435.971 433.431,433.037 436.997,433.037L579.997,433.037C583.563,433.037 586.497,435.971 586.497,439.537C586.497,443.103 583.563,446.037 579.997,446.037Z" style="fill:rgb(224,231,255);fill-rule:nonzero;"/>
    </g>
    <g transform="matrix(1,0,0,1,-238.48,-171.037)">
        <path d="M598.178,495.537L571.855,495.537C571.047,495.529 570.284,495.154 569.786,494.517C569.199,493.768 568.978,492.794 569.186,491.865L581.573,435.819C581.777,434.511 582.916,433.537 584.24,433.537C585.534,433.537 586.654,434.467 586.893,435.738L600.829,491.783C601.065,492.721 600.86,493.718 600.272,494.487C599.774,495.142 599,495.53 598.178,495.537Z" style="fill:rgb(230,230,230);fill-rule:nonzero;"/>
    </g>
    <g transform="matrix(1,0,0,1,-238.48,-171.037)">
        <path d="M928.997,516.537L270.997,516.537C263.591,516.537 257.497,510.443 257.497,503.037C257.497,495.631 263.591,489.537 270.997,489.537L928.997,489.537C936.403,489.537 942.497,495.631 942.497,503.037C942.497,510.443 936.403,516.537 928.997,516.537Z" style="fill:white;fill-opacity:0.65;fill-rule:nonzero;"/>
    </g>
    <path d="M607.193,311.693L597.591,311.692L593.024,274.657L607.195,274.658L607.193,311.693Z" style="fill:rgb(255,182,182);fill-rule:nonzero;"/>
    <g transform="matrix(1,0,0,1,-238.48,-171.037)">
        <path d="M848.121,492.037L817.162,492.036L817.162,491.644C817.162,485.034 822.602,479.594 829.212,479.594L829.213,479.594L834.868,475.304L845.419,479.595L848.122,479.595L848.121,492.037Z" style="fill:rgb(47,46,65);fill-rule:nonzero;"/>
    </g>
    <path d="M693.95,299.209L685.357,303.492L664.747,272.384L677.431,266.063L693.95,299.209Z" style="fill:rgb(255,182,182);fill-rule:nonzero;"/>
    <g transform="matrix(1,0,0,1,-238.48,-171.037)">
        <path d="M938.774,477.484L911.065,491.294L910.89,490.943C907.941,485.027 910.383,477.732 916.299,474.783L916.3,474.782L919.447,468.42L930.805,467.553L933.224,466.348L938.774,477.484Z" style="fill:rgb(47,46,65);fill-rule:nonzero;"/>
    </g>
    <g transform="matrix(1,0,0,1,-238.48,-171.037)">
        <path d="M841.419,314.529L894.364,316.382L898.322,323.734C898.322,323.734 902.469,353.814 900.345,355.937C898.222,358.061 897.16,358.061 898.222,361.777C899.283,365.493 902.028,400.999 902.028,400.999C902.028,400.999 923.9,446.365 924.962,449.019C926.023,451.674 927.085,450.612 926.023,451.674C925.083,452.688 924.197,453.751 923.369,454.859L906.064,454.859C906.064,454.859 896.747,431.356 888.218,422.266C880.688,414.24 875.918,404.014 874.606,393.088L867.431,359.122L852.036,411.148C852.036,411.148 849.382,462.642 849.913,465.296L850.443,467.951L830.048,468.179C830.048,468.179 827.924,463.704 828.986,462.111C830.048,460.519 829.984,460.953 828.689,458.347C827.393,455.741 827.924,451.324 827.924,451.324C827.924,451.324 835.579,346.912 835.579,345.32C835.619,344.5 835.468,343.683 835.138,342.931L835.138,340.77L837.172,333.11L841.419,314.529Z" style="fill:rgb(47,46,65);fill-rule:nonzero;"/>
    </g>
    <g transform="matrix(1,0,0,1,-238.48,-171.037)">
        <path d="M864.246,218.467C860.8,220.516 858.739,224.28 857.555,228.111C855.364,235.202 854.045,242.535 853.628,249.946L852.378,272.132C851.755,286.45 847.772,300.422 840.751,312.916C840.176,313.965 839.875,315.143 839.875,316.34C839.875,319.576 842.079,322.426 845.211,323.24C864.4,328.275 900.744,321.954 900.744,321.954C900.744,321.954 902.292,321.438 900.744,319.89C899.196,318.342 895.723,310.601 895.723,310.601L899.851,283.484L905.011,228.787C898.819,221.047 886.366,216.484 886.366,216.484L883.148,210.692L867.059,211.979L864.246,218.467Z" style="fill:rgb(144,161,219);fill-rule:nonzero;"/>
    </g>
    <circle cx="635.979" cy="20.834" r="15.455" style="fill:rgb(255,184,184);"/>
    <g transform="matrix(1,0,0,1,-238.48,-171.037)">
        <path d="M893.503,190.953C892.812,194.085 891.568,197.067 889.827,199.76C889.365,200.678 888.674,201.462 887.822,202.037C886.935,202.606 885.756,202.459 885.037,201.689L884.661,201.382C885.398,200.928 886.057,200.357 886.61,199.691C887.166,199.013 887.361,198.107 887.132,197.261C886.857,196.411 885.945,195.924 885.086,196.168C884.18,196.523 883.63,197.832 882.684,197.63C881.918,197.463 881.758,196.453 881.758,195.66C881.785,191.51 879.78,185.613 878.228,185.794C876.659,185.88 875.089,185.67 873.598,185.175C872.106,184.679 870.531,184.478 868.961,184.583C868.85,184.597 868.739,184.618 868.62,184.639C868.369,183.85 868.023,183.095 867.59,182.39C867.639,183.241 867.597,184.096 867.465,184.938C866.216,185.453 864.925,185.86 863.608,186.156C862.173,186.358 859.02,190.647 858.873,190.208C858.622,189.42 858.276,188.665 857.843,187.96C857.892,188.811 857.85,189.665 857.718,190.508C857.711,190.542 857.711,190.57 857.704,190.605C857.008,189.679 856.583,188.551 856.82,189.415C854.487,184.137 855.392,180.357 859.061,175.908C859.776,174.952 860.723,174.192 861.811,173.701C862.919,173.215 864.204,173.342 865.195,174.036C868.238,171.245 872.57,170.321 876.487,171.627C880.31,172.956 883.254,173.736 883.839,177.746C887.089,177.391 890.267,178.938 891.992,181.715C893.639,184.494 894.178,187.794 893.503,190.953Z" style="fill:rgb(47,46,65);fill-rule:nonzero;"/>
    </g>
    <g transform="matrix(1,0,0,1,-238.48,-171.037)">
        <path d="M909.997,291.385L910.022,260.356L888.19,261.986L894.627,281.556L874.853,316.977C871.342,317.765 868.825,320.909 868.825,324.507C868.825,328.74 872.309,332.224 876.542,332.224C880.776,332.224 884.259,328.74 884.259,324.507C884.259,324.164 884.236,323.822 884.191,323.482L909.997,291.385Z" style="fill:rgb(255,182,182);fill-rule:nonzero;"/>
    </g>
    <g transform="matrix(1,0,0,1,-238.48,-171.037)">
        <path d="M903.458,227.33C912.002,231.01 913.933,286.585 912.012,286.27C906.554,285.373 895.599,280.176 892.324,281.716C890.451,282.596 888.392,266.654 888.392,266.654C888.392,266.654 886.409,257.728 884.084,246.193C882.627,239.597 884.657,232.694 889.453,227.937C894.25,223.18 894.914,223.651 903.458,227.33Z" style="fill:rgb(144,161,219);fill-rule:nonzero;"/>
    </g>
    <g transform="matrix(1,0,0,1,-238.48,-171.037)">
        <path d="M375.817,570.227C374.73,569.235 374.11,567.83 374.11,566.358C374.11,564.73 374.868,563.192 376.16,562.202L370.294,544.533L379.637,547.043L383.775,563.437C384.352,564.302 384.66,565.319 384.66,566.36C384.66,569.249 382.283,571.627 379.393,571.627C378.068,571.627 376.79,571.127 375.817,570.227L375.817,570.227Z" style="fill:rgb(255,182,182);fill-rule:nonzero;"/>
    </g>
    <g transform="matrix(1,0,0,1,-238.48,-171.037)">
        <path d="M392.751,474.231C394.301,475.12 403.473,472.918 405.264,473.544C404.275,479.577 409.646,477.313 403.814,485.236C397.982,493.16 386.236,516.915 383.567,525.794C380.899,534.673 383.54,547.185 383.14,551.393C382.947,553.831 382.959,556.281 383.176,558.717C380.025,558.677 376.919,559.331 373.719,558.914C370.306,549.257 368.012,535.511 366.453,527.914C364.895,520.317 364.838,523.53 365.553,519.731C366.268,515.932 366.441,518.693 365.69,515.059C364.939,511.425 367.975,506.859 370.78,504.255C371.99,500.776 373.553,497.533 374.751,494.09C383.525,486.435 384.102,482.013 392.751,474.231Z" style="fill:rgb(63,61,86);fill-rule:nonzero;"/>
    </g>
    <g transform="matrix(1,0,0,1,-238.48,-171.037)">
        <path d="M474.884,559.027C474.638,559.062 474.389,559.08 474.141,559.08C471.267,559.08 468.902,556.715 468.902,553.841C468.902,553.781 468.903,553.722 468.905,553.662L451.536,546.96L459.412,541.343L474.699,548.568C477.376,548.837 479.438,551.118 479.438,553.808C479.438,556.43 477.481,558.672 474.884,559.027Z" style="fill:rgb(255,182,182);fill-rule:nonzero;"/>
    </g>
    <g transform="matrix(1,0,0,1,-238.48,-171.037)">
        <path d="M411.534,484.94C413.206,484.308 417.335,475.827 418.957,474.842C422.987,479.44 424.652,473.855 427.062,483.394C429.473,492.932 440.347,517.1 445.505,524.803C450.664,532.506 462.003,538.42 464.997,541.403C466.757,543.101 468.656,544.649 470.675,546.03C468.641,548.437 467.172,551.251 464.815,553.456C455.191,549.953 443.12,542.988 436.265,539.362C429.409,535.737 431.853,537.823 429.375,534.857C426.897,531.891 429.138,533.511 425.855,531.781C422.572,530.051 420.977,524.805 420.75,520.985C418.833,517.84 417.322,514.571 415.425,511.459C415.093,499.819 412.046,496.563 411.534,484.94Z" style="fill:rgb(63,61,86);fill-rule:nonzero;"/>
    </g>
    <path d="M186.123,366.39L194.791,405.071L139.247,401.616L154.351,363.627L186.123,366.39Z" style="fill:rgb(144,161,219);fill-rule:nonzero;"/>
    <path d="M176.874,544.917L183.113,544.916L186.081,520.851L176.873,520.851L176.874,544.917Z" style="fill:rgb(144,161,219);fill-rule:nonzero;"/>
    <g transform="matrix(1,0,0,1,-238.48,-171.037)">
        <path d="M413.241,712.875L423.104,712.287L423.104,716.512L432.481,722.989C433.194,723.481 433.621,724.294 433.621,725.161C433.621,726.609 432.429,727.8 430.981,727.8L419.239,727.8L417.215,723.62L416.424,727.8L411.997,727.8L413.241,712.875Z" style="fill:rgb(144,161,219);fill-rule:nonzero;"/>
    </g>
    <path d="M117.905,541.813L124.002,543.135L132.005,520.246L123.006,518.294L117.905,541.813Z" style="fill:rgb(144,161,219);fill-rule:nonzero;"/>
    <g transform="matrix(1,0,0,1,-238.48,-171.037)">
        <path d="M354.972,709.393L364.736,710.909L363.84,715.039L371.631,723.356C372.089,723.845 372.344,724.49 372.344,725.16C372.344,726.608 371.153,727.8 369.704,727.8C369.516,727.8 369.329,727.78 369.145,727.74L357.669,725.25L356.578,720.737L354.919,724.654L350.593,723.715L354.972,709.393Z" style="fill:rgb(47,46,65);fill-rule:nonzero;"/>
    </g>
    <g transform="matrix(1,0,0,1,-238.48,-171.037)">
        <path d="M434.689,608.453C430.31,632.518 429.215,642.908 429.215,642.908C429.215,642.908 432.499,646.736 430.31,648.926C428.12,651.115 430.31,655.488 430.31,655.488L425.387,708.54L421.424,707.898L411.877,706.363L408.434,705.807L410.624,656.038C410.624,656.038 408.434,651.66 409.529,650.565C410.624,649.47 408.434,642.908 408.434,642.908L405.701,590.95L388.742,647.831C388.742,647.831 390.387,650.021 388.742,651.66C387.103,653.299 383.825,661.506 383.825,661.506L373.741,696.792L372.885,699.789L367.625,698.804L361.901,697.728L360.849,697.532L358.978,697.178L357.773,696.951L357.363,696.878L355.382,696.505L355.981,693.845L356.293,692.444L364.824,654.552L365.02,653.678L365.228,652.754C365.228,652.754 364.133,650.021 365.772,648.375C366.745,647.359 367.155,645.924 366.867,644.547C366.813,644.49 366.764,644.429 366.72,644.364C366.527,644.098 366.393,643.793 366.329,643.471C366.174,642.426 366.59,641.375 367.417,640.719C367.729,640.388 367.991,640.013 368.194,639.606C369.857,636.456 370.695,629.784 370.695,629.784C370.695,629.784 372.175,576.939 377.019,568.867C377.276,568.445 382.417,560.344 382.686,560.179C388.154,556.901 430.749,561.428 430.749,561.428C430.749,561.428 433.329,568.359 433.445,569.081C434.075,573.136 438.401,588.039 434.689,608.453Z" style="fill:rgb(47,46,65);fill-rule:nonzero;"/>
    </g>
    <g transform="matrix(1,0,0,1,-238.48,-171.037)">
        <path d="M421.746,481.165C421.746,481.165 422.667,476.38 413.811,467.524C409.122,465.961 400.998,466.872 398.182,467.524C385.158,484.716 387.49,481.682 384.099,491.288C383.204,493.449 382.884,495.805 383.171,498.126C384.734,505.94 387.272,546.054 386.751,548.138C386.23,550.222 382.583,552.827 386.23,552.827C389.876,552.827 436.905,552.004 435.863,550.441C434.821,548.878 421.746,481.165 421.746,481.165Z" style="fill:rgb(63,61,86);fill-rule:nonzero;"/>
    </g>
    <circle cx="168.577" cy="278.545" r="14.938" style="fill:rgb(224,231,255);"/>
    <g transform="matrix(1,0,0,1,-238.48,-171.037)">
        <path d="M394.401,455.23C394.319,457.041 393.184,458.603 392.307,460.189C389.207,465.93 389.138,472.847 392.124,478.649C393.343,480.961 395.031,483.025 395.999,485.454C396.941,487.53 396.919,489.919 395.938,491.976C393.32,489.457 392.042,490.787 389.069,488.588C390.238,491.865 389.242,491.972 390.415,495.245C385.369,496.685 380.321,498.13 375.271,499.579C381.624,494.422 383.77,485.594 380.493,478.097C378.647,474.139 375.347,470.876 374.146,466.67C373.826,465.557 373.664,464.405 373.664,463.247C373.664,456.445 379.261,450.848 386.063,450.848C387.831,450.848 389.579,451.226 391.189,451.957C392.886,451.472 394.483,453.447 394.401,455.23Z" style="fill:rgb(47,46,65);fill-rule:nonzero;"/>
    </g>
    <g transform="matrix(1,0,0,1,-238.48,-171.037)">
        <path d="M413.163,432.839C411.154,428.45 405.854,429.343 401.062,429.922C396.208,430.671 392.026,433.774 389.903,438.203C387.855,442.627 387.463,447.643 388.799,452.331C389.516,455.524 391.227,458.409 393.686,460.569C396.217,462.605 408.115,467.419 409.105,463.274C407.867,468.681 404.646,471.76 408.333,475.905C410.242,470.168 418.318,464.719 420.228,458.982C420.515,458.119 419.335,447.97 419.622,447.106C420.228,445.286 420.835,443.463 421.273,441.595C421.823,439.248 422.035,436.558 420.577,434.638C419.12,432.719 415.448,432.644 414.711,434.939" style="fill:rgb(47,46,65);fill-rule:nonzero;"/>
    </g>
    <g transform="matrix(1,0,0,1,-238.48,-171.037)">
        <path d="M410.758,451.107L410.12,447.042C410.554,441.986 409.845,433.945 413.163,432.839L415.192,434.868C413.909,435.296 411.467,442.856 410.758,451.107Z" style="fill:rgb(255,101,132);fill-rule:nonzero;"/>
    </g>
    <g transform="matrix(1,0,0,1,-238.48,-171.037)">
        <path d="M556.269,727.994L556.269,728.001C556.269,728.652 555.733,729.188 555.082,729.188C555.081,729.188 555.08,729.188 555.079,729.188L274.789,729.188C274.136,729.188 273.599,728.65 273.599,727.998C273.599,727.345 274.136,726.808 274.789,726.808L555.079,726.808C555.08,726.808 555.081,726.808 555.082,726.808C555.733,726.808 556.269,727.343 556.269,727.994Z" style="fill:rgb(204,204,204);fill-rule:nonzero;"/>
    </g>
    <g transform="matrix(1,0,0,1,-238.48,-171.037)">
        <path d="M702.997,654.041L496.997,654.041C488.219,654.041 480.997,661.264 480.997,670.041C480.997,678.819 488.219,686.041 496.997,686.041L702.997,686.041C711.774,686.041 718.997,678.819 718.997,670.041C718.997,661.264 711.774,654.041 702.997,654.041Z" style="fill:white;fill-opacity:0.65;fill-rule:nonzero;"/>
    </g>
</svg>
