<svg width="100%" height="100%" viewBox="0 0 391 679" version="1.1" xmlns="http://www.w3.org/2000/svg" xmlns:xlink="http://www.w3.org/1999/xlink" xml:space="preserve" xmlns:serif="http://www.serif.com/" style="fill-rule:evenodd;clip-rule:evenodd;stroke-linejoin:round;stroke-miterlimit:2;">
    <g transform="matrix(1,0,0,1,-395.423,-290.141)">
        <g transform="matrix(1.86647,0,0,1.86647,-1273.23,-1033.47)">
            <path d="M967.253,733.324C967.253,719.985 956.424,709.155 943.084,709.155L918.183,709.155C904.844,709.155 894.014,719.985 894.014,733.324L894.014,892.732C894.014,906.072 904.844,916.901 918.183,916.901L943.084,916.901C956.424,916.901 967.253,906.072 967.253,892.732L967.253,733.324Z" style="fill:white;"/>
        </g>
        <g transform="matrix(1.41368,0,0,1.41368,-588.147,-327.871)">
            <path d="M967.253,733.324C967.253,719.985 956.424,709.155 943.084,709.155L918.183,709.155C904.844,709.155 894.014,719.985 894.014,733.324L894.014,892.732C894.014,906.072 904.844,916.901 918.183,916.901L943.084,916.901C956.424,916.901 967.253,906.072 967.253,892.732L967.253,733.324Z" style="fill:white;"/>
        </g>
        <g transform="matrix(1.41368,0,0,1.41368,-724.062,-327.871)">
            <path d="M967.253,733.324C967.253,719.985 956.424,709.155 943.084,709.155L918.183,709.155C904.844,709.155 894.014,719.985 894.014,733.324L894.014,892.732C894.014,906.072 904.844,916.901 918.183,916.901L943.084,916.901C956.424,916.901 967.253,906.072 967.253,892.732L967.253,733.324Z" style="fill:white;"/>
        </g>
        <g transform="matrix(1,0,0,1,8.4507,26.7605)">
            <circle cx="717.606" cy="579.225" r="59.507" style="fill:white;"/>
        </g>
    </g>
</svg>
