<?xml version="1.0" standalone="no"?>
<!DOCTYPE svg PUBLIC "-//W3C//DTD SVG 20010904//EN"
 "http://www.w3.org/TR/2001/REC-SVG-20010904/DTD/svg10.dtd">
<svg version="1.0" xmlns="http://www.w3.org/2000/svg"
 width="769.000000pt" height="769.000000pt" viewBox="0 0 769.000000 769.000000"
 preserveAspectRatio="xMidYMid meet">
<metadata>
Created by potrace 1.14, written by Peter Selinger 2001-2017
</metadata>
<g transform="translate(0.000000,769.000000) scale(0.100000,-0.100000)"
fill="#000000" stroke="none">
<path d="M3244 6313 c-16 -21 -36 -47 -46 -58 -9 -11 -130 -162 -268 -335
-138 -173 -259 -324 -268 -335 -10 -11 -80 -99 -157 -195 -77 -96 -142 -177
-145 -180 -5 -5 -275 -343 -292 -365 -4 -5 -22 -28 -40 -50 -19 -22 -69 -85
-113 -140 -44 -55 -85 -107 -92 -115 -7 -8 -137 -170 -288 -360 -152 -190
-284 -354 -293 -365 -9 -11 -69 -85 -132 -165 -63 -80 -117 -147 -120 -150 -3
-3 -104 -129 -225 -280 -121 -151 -222 -277 -225 -280 -3 -3 -18 -22 -33 -43
-16 -20 -38 -48 -50 -61 -12 -14 -31 -37 -42 -52 -11 -15 -53 -68 -93 -117
-39 -49 -72 -90 -72 -90 0 -1 426 -2 946 -1 l947 0 32 60 c39 73 147 279 250
479 43 83 107 206 143 275 35 69 96 186 135 260 38 74 89 171 112 215 23 44
80 152 125 240 45 88 104 201 130 250 26 50 91 176 145 280 54 105 112 217
130 250 18 33 67 128 110 210 83 160 163 315 272 523 36 70 87 168 114 219 33
65 50 89 56 80 6 -7 54 -97 108 -202 54 -104 138 -269 188 -365 49 -96 104
-202 122 -235 18 -33 76 -145 130 -250 54 -104 119 -230 145 -280 26 -49 89
-171 140 -270 51 -99 114 -220 140 -270 26 -49 85 -162 130 -250 82 -160 178
-346 295 -570 34 -66 100 -192 145 -280 161 -311 182 -350 190 -360 8 -10 475
-14 484 -4 2 2 -37 76 -86 164 -49 88 -106 189 -125 225 -20 36 -55 99 -78
140 -23 41 -55 100 -72 130 -17 30 -41 75 -55 100 -20 36 -170 305 -363 655
-47 84 -123 222 -147 265 -24 43 -448 805 -500 900 -14 25 -96 173 -183 330
-87 157 -166 299 -175 315 -9 17 -81 146 -160 288 l-142 257 -378 0 -378 0
-28 -37z"/>
<path d="M275 2182 c-168 -48 -278 -202 -270 -378 7 -173 119 -309 285 -348
238 -56 460 120 460 364 0 110 -41 202 -124 278 -94 85 -231 118 -351 84z"/>
<path d="M1629 2190 c-177 -29 -307 -187 -307 -374 0 -208 175 -379 378 -371
248 10 419 235 356 470 -19 73 -42 113 -101 171 -88 88 -201 124 -326 104z"/>
<path d="M5923 2094 c-99 -20 -170 -64 -227 -143 -54 -74 -74 -136 -72 -233 1
-73 6 -93 33 -149 141 -286 529 -288 676 -4 29 55 31 68 32 160 0 90 -3 106
-29 157 -41 83 -95 139 -168 176 -79 40 -164 53 -245 36z"/>
<path d="M7252 2098 c-101 -15 -198 -80 -256 -172 -40 -65 -52 -104 -55 -189
-11 -299 320 -486 574 -325 113 72 175 189 170 323 -3 85 -10 114 -43 172 -79
141 -229 215 -390 191z"/>
</g>
</svg>
