<?xml version="1.0" encoding="UTF-8" standalone="no"?>
<!DOCTYPE svg PUBLIC "-//W3C//DTD SVG 1.1//EN" "http://www.w3.org/Graphics/SVG/1.1/DTD/svg11.dtd">
<svg width="100%" height="100%" viewBox="0 0 139 91" version="1.1" xmlns="http://www.w3.org/2000/svg" xmlns:xlink="http://www.w3.org/1999/xlink" xml:space="preserve" xmlns:serif="http://www.serif.com/" style="fill-rule:evenodd;clip-rule:evenodd;stroke-linejoin:round;stroke-miterlimit:2;">
    <g transform="matrix(1,0,0,1,-20.8727,-50.208)">
        <g transform="matrix(0.679652,0,0,0.679652,45.9868,50.208)">
            <path d="M-30.332,100L50,0L70,0L125.615,100L112.605,100L66.367,11.035L20,100L-30.332,100Z" style="fill:rgb(22,22,22);fill-rule:nonzero;"/>
        </g>
        <g transform="matrix(0.679652,0,0,0.679652,10.6779,46.84)">
            <circle cx="25" cy="125" r="10" style="fill:rgb(22,22,22);"/>
        </g>
        <g transform="matrix(0.679652,0,0,0.679652,10.6779,46.84)">
            <circle cx="60" cy="125" r="10" style="fill:rgb(22,22,22);"/>
        </g>
        <g transform="matrix(0.679652,0,0,0.679652,112.091,48.5026)">
            <circle cx="25" cy="125" r="10" style="fill:rgb(22,22,22);"/>
        </g>
        <g transform="matrix(0.679652,0,0,0.679652,112.091,48.5026)">
            <circle cx="60" cy="125" r="10" style="fill:rgb(22,22,22);"/>
        </g>
    </g>
</svg>
